<?xml version="1.0" encoding="UTF-8" standalone="no"?>
<!-- Created with Inkscape (http://www.inkscape.org/) -->

<svg
   xmlns:dc="http://purl.org/dc/elements/1.1/"
   xmlns:cc="http://creativecommons.org/ns#"
   xmlns:rdf="http://www.w3.org/1999/02/22-rdf-syntax-ns#"
   xmlns:svg="http://www.w3.org/2000/svg"
   xmlns="http://www.w3.org/2000/svg"
   xmlns:sodipodi="http://sodipodi.sourceforge.net/DTD/sodipodi-0.dtd"
   xmlns:inkscape="http://www.inkscape.org/namespaces/inkscape"
   id="svg2"
   version="1.1"
   inkscape:version="0.91 r13725"
   width="300"
   height="170"
   viewBox="0 0 300 170"
   sodipodi:docname="Marvel-tv-logo.svg">
  <metadata
     id="metadata8">
    <rdf:RDF>
      <cc:Work
         rdf:about="">
        <dc:format>image/svg+xml</dc:format>
        <dc:type
           rdf:resource="http://purl.org/dc/dcmitype/StillImage" />
        <dc:title />
      </cc:Work>
    </rdf:RDF>
  </metadata>
  <defs
     id="defs6">
    <style
       id="style2422"
       type="text/css" />
  </defs>
  <sodipodi:namedview
     pagecolor="#ffffff"
     bordercolor="#666666"
     borderopacity="1"
     objecttolerance="10"
     gridtolerance="10"
     guidetolerance="10"
     inkscape:pageopacity="0"
     inkscape:pageshadow="2"
     inkscape:window-width="1366"
     inkscape:window-height="705"
     id="namedview4"
     showgrid="false"
     inkscape:zoom="2.8284271"
     inkscape:cx="181.77685"
     inkscape:cy="30.319943"
     inkscape:window-x="-8"
     inkscape:window-y="-8"
     inkscape:window-maximized="1"
     inkscape:current-layer="svg2"
     fit-margin-left="10"
     fit-margin-top="10"
     fit-margin-bottom="10"
     fit-margin-right="10" />
  <path
     d="M 290,125 10,125 35.417306,10.873011 263.5941,10 Z"
     id="path2507"
     style="fill:#f11e22;fill-rule:nonzero;stroke:none"
     inkscape:connector-curvature="0"
     sodipodi:nodetypes="ccccc" />
  <path
     d="m 232.08522,19.091428 13.81268,0 13.32447,72.368234 13.46219,0 4.3382,22.335868 -30.68346,0 z"
     id="path2509"
     style="fill:#ffffff;fill-rule:nonzero;stroke:none"
     inkscape:connector-curvature="0"
     sodipodi:nodetypes="ccccccc" />
  <path
     d="m 142.79954,60.683369 c 11.11539,-0.695985 9.79502,-14.655028 9.79502,-14.655028 -1.68415,-13.919707 -9.17529,-11.371779 -9.17529,-11.371779 z m -32.29544,21.841943 -2.85639,-30.345081 -7.45054,30.345081 z m -88.31675,31.270218 20.141633,-94.704102 16.855272,0 0.2831,40.036597 13.688567,-40.036597 17.420975,0 -9.008012,84.690442 20.904895,-84.690442 16.20845,0 6.912,85.314972 4.3382,-85.314972 19.53646,0 c 0,0 10.67074,2.144734 15.38635,15.716449 l -2.02098,-15.716449 12.47636,0 10.22607,48.50643 4.36547,-48.50643 38.73578,0 2.78884,17.8687 -13.19028,0 2.67053,18.092058 12.9448,-0.223358 3.09871,17.868699 -12.91783,0.223359 2.28739,18.538776 13.47321,0 4.02832,22.335868 -32.45686,0 -9.29613,-94.704102 -3.71908,94.704102 -18.52567,0 -12.55691,-66.099867 c 0,0 1.10469,22.259472 -7.98973,29.91531 l 11.78907,36.184557 -16.16786,0 -10.52262,-35.364533 -0.9296,35.364533 -32.67254,0 -1.99402,-11.61465 -11.533111,0 -3.314381,11.61465 -30.988382,0 6.507298,-44.671743 -14.591223,44.671743 -7.491142,0 -1.21284,-44.671743 -7.127038,44.671743 z"
     id="path2515"
     style="fill:#ffffff;fill-rule:nonzero;stroke:none"
     inkscape:connector-curvature="0"
     sodipodi:nodetypes="cccccccccccccccccccccccccccccccccccccccccccccccccccccccc" />
  <path
     d="M 280.56445,160 17.801682,160 10,125 l 280,0 z"
     id="path2507-8"
     style="fill:#9f0d0b;fill-opacity:1;fill-rule:nonzero;stroke:none"
     inkscape:connector-curvature="0"
     sodipodi:nodetypes="ccccc"
     inkscape:transform-center-x="71.890134"
     inkscape:transform-center-y="41.668685" />
  <path
     style="fill:#ffffff;fill-opacity:1;fill-rule:evenodd;stroke:none;stroke-width:1px;stroke-linecap:butt;stroke-linejoin:miter;stroke-opacity:1"
     d="m 229.99696,130.71496 c -13.33684,0.13158 -18.22805,6.4774 -18.22805,6.4774 l 0.33636,-5.919 -11.43611,0 -0.17678,5.35612 c -1.73785,-4.03005 -7.79469,-5.89123 -14.57371,-5.89123 -6.77902,0 -14.12696,1.99616 -14.28827,6.28659 -0.1911,5.08287 11.12824,7.16857 14.36696,7.25044 3.23872,0.0819 6.37695,0.81835 6.40494,2.08405 0.028,1.2657 -3.6334,1.89842 -6.30859,1.83345 -2.67519,-0.065 -3.90546,-1.04235 -5.662,-2.6803 l -9.13768,0 0.2803,-14.23912 -18.27536,0 -7.568,15.24423 -8.12861,-15.13255 -35.70983,0 1.06513,16.24935 -14.070904,0 -2.130258,-16.36103 -69.793923,0 1.625722,5.58397 10.483103,0 3.419622,15.97015 10.87552,0 -3.363564,-16.30519 8.521026,0 3.195385,16.47271 79.772481,0 0,-5.52813 -17.93899,0 0,-4.0763 15.86481,0 0,-4.74637 -16.25723,0 0,-2.28943 16.92994,0 9.86645,16.24935 11.4361,0 9.47405,-14.96503 -0.6114,15.08543 10.6688,0.0803 0.14541,-3.99777 c 2.48528,2.99673 5.82568,4.43514 14.94104,4.35595 9.11536,-0.0792 12.10862,-1.14345 13.82602,-4.08602 l -0.22424,3.67139 10.64268,-0.0884 0.22424,-5.86316 c 0,0 3.53724,6.70114 15.65283,6.84909 12.11558,0.14794 17.53431,-6.90493 17.53431,-6.90493 l -0.84088,5.97484 9.81039,0 2.4666,-11.16793 9.53011,11.05625 9.97856,0 4.48476,-21.21908 -9.30586,0 -2.97115,11.9497 -10.25887,-12.11722 -10.25886,0 -0.95301,6.64493 c 0,0 -2.01465,-7.27907 -15.35152,-7.14748 z m -43.77711,5.0657 c 1.93943,0.0635 5.67663,1.78693 5.67663,1.78693 l 8.58443,0.26517 -0.30752,5.77532 c -3.86804,-4.54 -12.01093,-4.21057 -14.10341,-4.25664 -2.09248,-0.0461 -5.78916,-0.45061 -5.81104,-1.93277 -0.0219,-1.48216 4.02148,-1.7015 5.96091,-1.63801 z m 42.53506,0.37867 0.002,0 c 0.39236,-0.001 0.77976,0.0256 1.15798,0.0803 3.66829,0.53167 5.73188,3.51454 4.60914,6.66237 -1.12229,3.14825 -5.00654,5.26951 -8.67518,4.73766 -3.66829,-0.53167 -5.73189,-3.51454 -4.60914,-6.66238 0.98912,-2.7739 4.16181,-4.8078 7.51546,-4.81791 z m -169.223998,0.41007 17.203222,0.1588 1.348928,10.89745 -16.807302,-0.0785 -0.39767,-3.79186 15.617792,-0.0785 -0.522053,-4.89295 -16.125831,-0.082 -0.317086,-2.13238 z"
     id="path4140"
     inkscape:connector-curvature="0"
     sodipodi:nodetypes="ccccczszszccccccccccccccccccccccccccccccccczccccscccccccccccccczccczzzcccccccccccccccccc" />
</svg>
